<?xml version="1.0" standalone="no"?>
<!DOCTYPE svg PUBLIC "-//W3C//DTD SVG 20010904//EN"
 "http://www.w3.org/TR/2001/REC-SVG-20010904/DTD/svg10.dtd">
<svg version="1.0" xmlns="http://www.w3.org/2000/svg"
 width="700.000000pt" height="700.000000pt" viewBox="0 0 700.000000 700.000000"
 preserveAspectRatio="xMidYMid meet">
<metadata>
Created by potrace 1.14, written by Peter Selinger 2001-2017
</metadata>
<g transform="translate(0.000000,700.000000) scale(0.100000,-0.100000)"
fill="#000000" stroke="none">
<path d="M3540 6967 c-312 -99 -591 -247 -835 -444 -473 -382 -818 -864 -1065
-1488 -113 -286 -196 -590 -277 -1015 l-28 -145 -1 -532 -1 -532 -75 -88
c-431 -509 -842 -1121 -1055 -1571 -93 -198 -214 -524 -199 -539 6 -6 761 182
1076 267 259 71 475 135 528 157 31 13 38 13 44 2 5 -8 32 -53 62 -101 l54
-86 -184 -293 c-101 -160 -181 -295 -179 -299 2 -4 26 -10 52 -13 26 -3 236
-33 465 -66 375 -54 791 -109 1213 -158 185 -22 711 -24 975 -5 646 48 1506
125 1517 135 2 3 -70 141 -161 306 l-166 301 55 81 c30 45 55 85 57 91 2 5 57
-11 123 -35 169 -63 617 -209 965 -315 438 -134 495 -150 498 -142 4 11 -34
158 -75 285 -127 396 -393 911 -735 1423 -115 172 -266 385 -326 459 l-34 42
16 168 c41 438 59 814 45 964 -15 166 -55 436 -90 610 -208 1025 -736 1853
-1489 2333 -98 62 -348 184 -475 232 -135 50 -167 51 -295 11z m-817 -708
c222 -132 462 -235 677 -291 138 -36 336 -48 472 -29 228 33 525 137 774 272
l91 49 85 -88 c458 -475 787 -1183 918 -1977 64 -387 71 -528 45 -921 -38
-580 -81 -945 -166 -1390 l-31 -161 -96 -21 c-580 -128 -1525 -145 -2842 -52
-499 36 -1088 93 -1100 107 -9 9 -43 231 -65 413 -40 341 -65 828 -65 1290 0
276 2 320 25 465 136 870 432 1570 895 2116 83 98 262 279 276 279 3 0 51 -27
107 -61z"/>
<path d="M3392 4920 c-230 -50 -420 -155 -577 -321 -119 -126 -201 -272 -247
-439 -19 -72 -23 -109 -23 -245 0 -137 4 -172 24 -245 96 -347 358 -617 706
-729 128 -42 233 -54 393 -48 169 6 292 36 438 107 287 139 483 374 566 678
30 111 30 363 0 474 -62 229 -195 428 -381 569 -93 70 -267 154 -386 185 -140
37 -376 43 -513 14z m433 -365 c204 -56 388 -223 468 -425 70 -179 61 -346
-29 -529 -83 -169 -234 -297 -422 -359 -67 -22 -95 -26 -212 -26 -160 -1 -212
10 -335 69 -151 73 -254 174 -325 320 -90 184 -94 377 -11 559 94 208 295 366
513 406 74 13 281 4 353 -15z"/>
</g>
</svg>
