<svg id="レイヤー_1" data-name="レイヤー 1" xmlns="http://www.w3.org/2000/svg" viewBox="0 0 305.22 512"><defs><style>.cls-1{fill:#fff;}</style></defs><path class="cls-1" d="M837.84,388.35a81.29,81.29,0,0,1-.29,22.26,58.87,58.87,0,0,1-6.68,20.47A35.49,35.49,0,0,1,817,445c-4.3,2.15-8.52,3.45-13.06,2.33a106.37,106.37,0,0,0,2.56-12,130.92,130.92,0,0,0,.51-35,123.87,123.87,0,0,0-9-33.85,93.79,93.79,0,0,0-10.67-18.6c4.59-4,9.78-6.81,15.11-7.14,6.57-.5,12.81,2.88,17.9,7.75C830.61,358.54,836,373.66,837.84,388.35Z" transform="translate(-546.39 -147.61)"/><path class="cls-1" d="M795.44,401.56c1.9,21.13-.61,43.49-11,61.31-5.14,8.85-12.31,16.52-20.86,21.41A39.29,39.29,0,0,1,750.35,489a35.61,35.61,0,0,1-6.35.62,13,13,0,0,1-1.67-.09A94.53,94.53,0,0,0,746,474.31,187.35,187.35,0,0,0,748.53,451a215,215,0,0,0-2.94-46.39c-2.52-13.74-5.59-27.33-11.84-40.45.54-7.39,5.68-14.58,12.21-18.82a31.15,31.15,0,0,1,13.58-5,11.5,11.5,0,0,1,3.18-.06,12.57,12.57,0,0,1,2.86.83,24.43,24.43,0,0,1,5.77,3.72c7.45,6.42,12.89,16,16.8,25.76A113.08,113.08,0,0,1,795.44,401.56Z" transform="translate(-546.39 -147.61)"/><path class="cls-1" d="M734.64,406.31a233.31,233.31,0,0,1,2.14,44.09,180.63,180.63,0,0,1-2.41,21.75,71.47,71.47,0,0,1-6,20.16c-5.79,12.33-16.86,21.56-29.92,23.94a53.14,53.14,0,0,1-38.34-8.71,30.48,30.48,0,0,1-6.83-7s0-.07,0-.09a336.37,336.37,0,0,0-5-35.25c5.75,3.15,11.39,6.44,16.9,9.95s10.77,7.09,16.45,11.23c6.74,4.91,16.35,5.49,23.74,2.64a33.94,33.94,0,0,0,17.54-15,45.74,45.74,0,0,0,5.86-21.49,51.34,51.34,0,0,0-3.67-21.64A50.49,50.49,0,0,0,712.43,413a74.36,74.36,0,0,0-35.12-17.29l.81-13.81c.34-1.72.74-3.42,1.24-5.08,2-6.64,5.67-12.63,10.9-16.55a25.39,25.39,0,0,1,18.13-5.05,21.53,21.53,0,0,1,8.63,2.89,14.91,14.91,0,0,1,5.74,6.47C729.11,377,732.41,391.87,734.64,406.31Z" transform="translate(-546.39 -147.61)"/><path class="cls-1" d="M813.45,305.15c.91,9.36,1.33,18.78,1.64,28.22A28.2,28.2,0,0,0,801.46,332c-7.67,1.18-13.83,5.39-18.59,10.39a58.61,58.61,0,0,0-5.36-5.19A30.59,30.59,0,0,0,769,332.3a19.11,19.11,0,0,0-10.44-1,39.66,39.66,0,0,0-17.32,7.22,37.17,37.17,0,0,0-11.9,14.26c-.35.78-.58,1.62-.87,2.42a23.36,23.36,0,0,0-6.39-5.48,29.58,29.58,0,0,0-12.84-3.9,32.65,32.65,0,0,0-6.71.21,83.91,83.91,0,0,0,13.33-20.87c7.47-16.63,11-34.31,13-51.86l-6.38-.84c-2.59,17-6.63,34-14.1,49.15a72.25,72.25,0,0,1-14.23,20.1,43.7,43.7,0,0,1-9.52,7,26.84,26.84,0,0,1-10.14,3.2l-5.09-.08.13,5,.81,29.14a83.42,83.42,0,0,0,.33,12.37l-.19,2.23,2.78.92c12,3.91,23.9,9.84,32.68,18.36a40.54,40.54,0,0,1,12.9,32.31,36,36,0,0,1-4.67,16.75,23.91,23.91,0,0,1-12.32,10.47c-5.09,1.75-10.34,1.37-14.54-1.67-5.11-3.71-11-7.71-16.71-11.24A396.1,396.1,0,0,0,635.1,447c-5.86-3-12-5.94-16.37-9.46a16.9,16.9,0,0,1-2.64-2.66l-.69-1.08-.35-.87-.31-1a70.8,70.8,0,0,1-1.75-9.15c-1.71-12.9-2.36-26.29-3.58-39.61s-2.21-26.73-5.28-40.18l-6.3,1.27c3.59,25.89,2.6,52.71,5.59,79.74a77.11,77.11,0,0,0,1.81,10.56l.41,1.44.56,1.44a17.77,17.77,0,0,0,1.87,3.23,25.17,25.17,0,0,0,4.33,4.5c6.07,4.82,12.18,7.6,18.14,10.77,3.1,1.57,6.19,3.16,9.24,4.74a294.07,294.07,0,0,0,.4,41A366.66,366.66,0,0,1,641.56,545a238.51,238.51,0,0,1-4.93,42.38c-3,13.71-7.81,27.07-15.29,38.13-7.3,11-18.25,19.44-30,19.7-11.69.53-22.55-7.75-27.3-19.38A49.58,49.58,0,0,1,560.31,607a65.46,65.46,0,0,1,.62-9.91l1.57-10.93q3.11-22,4.9-44.21c5.15-59.18,2.32-118.26,4.56-176.71.59-14.6,1.49-29.25,2.79-43.74a147.22,147.22,0,0,1,3-21.37,163.1,163.1,0,0,1,6.31-20.48c5.21-13.21,10.74-26.38,18.94-37.54s18.86-20.15,32.64-22.32l-.64-6.4a42.9,42.9,0,0,0-14.87,2.77,19.55,19.55,0,0,1-5.94-10.33,20.06,20.06,0,0,1,2.23-13.58c4.46-8.51,13.67-14.47,23.5-18.5a129.54,129.54,0,0,1,32-7.77,250.08,250.08,0,0,1,33.8-1.93,262,262,0,0,1,34,1.86,139.83,139.83,0,0,1,32.28,7.3c10,3.77,19.58,9.43,23.83,17.62a17,17,0,0,1,1.28,13.23,29.06,29.06,0,0,1-7.37,11.39c-1.1-.82-2.22-1.67-3.4-2.42a54.14,54.14,0,0,0-19.52-7.62l-1.47,6.27c11.83,3.56,21.29,11.75,27.92,21.86s11.1,22,14.07,34.16A244.05,244.05,0,0,1,813.45,305.15Z" transform="translate(-546.39 -147.61)"/><path d="M850.55,386.6c2.4,17,1.09,35.08-7.74,51.23-4.45,7.91-11,15.41-20.22,19.33a25.92,25.92,0,0,1-15.12,1.65,18.42,18.42,0,0,1-6.36-2.61,86.23,86.23,0,0,1-5.88,12.88A70.53,70.53,0,0,1,770,495.33c-5.44,3.07-11.42,5.71-18.16,6.26a24.24,24.24,0,0,1-10.33-1.35,22.58,22.58,0,0,1-3-1.5,57.13,57.13,0,0,1-14.7,18.65,52.16,52.16,0,0,1-23,10.81,49.55,49.55,0,0,1-25.24-1.32,46.81,46.81,0,0,1-20.42-14.1c-.29-.35-.54-.72-.82-1.08.9,11.15,1.35,22.36,1.22,33.64a226,226,0,0,1-4.72,45.17c-3.3,14.91-8.28,29.94-17.37,43.29a66.4,66.4,0,0,1-17.24,17.6,45.51,45.51,0,0,1-24.5,8.2,40.6,40.6,0,0,1-25-8,48.1,48.1,0,0,1-15.59-20.25,63.51,63.51,0,0,1-4.7-24.17,81.86,81.86,0,0,1,.85-12.1L549,584.19c2.26-14.4,4.06-28.87,5.5-43.4,6-58.08,4.13-116.92,7.26-176,.82-14.77,1.94-29.5,3.5-44.26.85-7.19,1.46-14.91,3-22.34a205.92,205.92,0,0,1,5.19-22.1,115.13,115.13,0,0,1,21-40.68,66.41,66.41,0,0,1,17.8-15.57c.26-.16.54-.25.79-.41a25.5,25.5,0,0,1-7.51-11.07,30.2,30.2,0,0,1,.61-20.68c5.36-13.16,16.8-21.45,28-26.92,23.1-10.82,47.77-12.85,71.76-13.15,23.79.31,48.46,2.32,71.64,12.47a72.44,72.44,0,0,1,16.47,10c5,4.22,9.72,9.56,12.3,16.32a27.36,27.36,0,0,1-.68,21A32.49,32.49,0,0,1,795.07,220a74.64,74.64,0,0,1,6.74,7.39c8.74,11,14.17,23.88,18.3,36.76a220.92,220.92,0,0,1,8,39.52,297.45,297.45,0,0,1,1.75,39.51C841.7,355.08,847.93,370.76,850.55,386.6Zm-13,24a81.29,81.29,0,0,0,.29-22.26c-1.81-14.69-7.23-29.81-17.46-39.89-5.09-4.87-11.33-8.25-17.9-7.75-5.33.33-10.52,3.19-15.11,7.14A93.79,93.79,0,0,1,798,366.45a123.87,123.87,0,0,1,9,33.85,130.92,130.92,0,0,1-.51,35,106.37,106.37,0,0,1-2.56,12c4.54,1.12,8.76-.18,13.06-2.33a35.49,35.49,0,0,0,13.85-13.87A58.87,58.87,0,0,0,837.55,410.61Zm-22.46-77.24c-.31-9.44-.73-18.86-1.64-28.22a244.05,244.05,0,0,0-6.09-37.43c-3-12.19-7.45-24-14.07-34.16s-16.09-18.3-27.92-21.86l1.47-6.27a54.14,54.14,0,0,1,19.52,7.62c1.18.75,2.3,1.6,3.4,2.42a29.06,29.06,0,0,0,7.37-11.39,17,17,0,0,0-1.28-13.23C791.6,182.66,782,177,772,173.23a139.83,139.83,0,0,0-32.28-7.3,262,262,0,0,0-34-1.86,250.08,250.08,0,0,0-33.8,1.93,129.54,129.54,0,0,0-32,7.77c-9.83,4-19,10-23.5,18.5a20.06,20.06,0,0,0-2.23,13.58,19.55,19.55,0,0,0,5.94,10.33A42.9,42.9,0,0,1,635,213.41l.64,6.4C621.87,222,611.14,231.05,603,242.13s-13.73,24.33-18.94,37.54a163.1,163.1,0,0,0-6.31,20.48,147.22,147.22,0,0,0-3,21.37c-1.3,14.49-2.2,29.14-2.79,43.74-2.24,58.45.59,117.53-4.56,176.71q-1.83,22.15-4.9,44.21l-1.57,10.93a65.46,65.46,0,0,0-.62,9.91,49.58,49.58,0,0,0,3.74,18.84c4.75,11.63,15.61,19.91,27.3,19.38,11.74-.26,22.69-8.71,30-19.7,7.48-11.06,12.26-24.42,15.29-38.13A238.51,238.51,0,0,0,641.56,545a366.66,366.66,0,0,0-1.38-43.29,294.07,294.07,0,0,1-.4-41c-3-1.58-6.14-3.17-9.24-4.74-6-3.17-12.07-6-18.14-10.77a25.17,25.17,0,0,1-4.33-4.5,17.77,17.77,0,0,1-1.87-3.23l-.56-1.44-.41-1.44A77.11,77.11,0,0,1,603.42,424c-3-27-2-53.85-5.59-79.74l6.3-1.27c3.07,13.45,4.11,26.86,5.28,40.18s1.87,26.71,3.58,39.61a70.8,70.8,0,0,0,1.75,9.15l.31,1,.35.87.69,1.08a16.9,16.9,0,0,0,2.64,2.66c4.41,3.52,10.51,6.46,16.37,9.46a396.1,396.1,0,0,1,35.53,19.48c5.68,3.53,11.6,7.53,16.71,11.24,4.2,3,9.45,3.42,14.54,1.67a23.91,23.91,0,0,0,12.32-10.47,36,36,0,0,0,4.67-16.75A40.54,40.54,0,0,0,706,419.87c-8.78-8.52-20.71-14.45-32.68-18.36l-2.78-.92.19-2.23a83.42,83.42,0,0,1-.33-12.37l-.81-29.14-.13-5,5.09.08a26.84,26.84,0,0,0,10.14-3.2,43.7,43.7,0,0,0,9.52-7,72.25,72.25,0,0,0,14.23-20.1c7.47-15.12,11.51-32.1,14.1-49.15l6.38.84c-2.07,17.55-5.57,35.23-13,51.86a83.91,83.91,0,0,1-13.33,20.87,32.65,32.65,0,0,1,6.71-.21,29.58,29.58,0,0,1,12.84,3.9,23.36,23.36,0,0,1,6.39,5.48c.29-.8.52-1.64.87-2.42a37.17,37.17,0,0,1,11.9-14.26,39.66,39.66,0,0,1,17.32-7.22,19.11,19.11,0,0,1,10.44,1,30.59,30.59,0,0,1,8.52,4.93,58.61,58.61,0,0,1,5.36,5.19c4.76-5,10.92-9.21,18.59-10.39A28.2,28.2,0,0,1,815.09,333.37Zm-30.62,129.5c10.36-17.82,12.87-40.18,11-61.31a113.08,113.08,0,0,0-7.29-31c-3.91-9.77-9.35-19.34-16.8-25.76a24.43,24.43,0,0,0-5.77-3.72,12.57,12.57,0,0,0-2.86-.83,11.5,11.5,0,0,0-3.18.06,31.15,31.15,0,0,0-13.58,5c-6.53,4.24-11.67,11.43-12.21,18.82,6.25,13.12,9.32,26.71,11.84,40.45A215,215,0,0,1,748.53,451,187.35,187.35,0,0,1,746,474.31a94.53,94.53,0,0,1-3.71,15.24,13,13,0,0,0,1.67.09,35.61,35.61,0,0,0,6.35-.62,39.29,39.29,0,0,0,13.26-4.74C772.16,479.39,779.33,471.72,784.47,462.87ZM736.78,450.4a233.31,233.31,0,0,0-2.14-44.09c-2.23-14.44-5.53-29.34-11.88-41.69a14.91,14.91,0,0,0-5.74-6.47,21.53,21.53,0,0,0-8.63-2.89,25.39,25.39,0,0,0-18.13,5.05c-5.23,3.92-8.89,9.91-10.9,16.55-.5,1.66-.9,3.36-1.24,5.08l-.81,13.81A74.36,74.36,0,0,1,712.43,413a50.49,50.49,0,0,1,12.63,17.88,51.34,51.34,0,0,1,3.67,21.64,45.74,45.74,0,0,1-5.86,21.49,33.94,33.94,0,0,1-17.54,15c-7.39,2.85-17,2.27-23.74-2.64-5.68-4.14-10.82-7.66-16.45-11.23s-11.15-6.8-16.9-9.95a336.37,336.37,0,0,1,5,35.25s0,.06,0,.09a30.48,30.48,0,0,0,6.83,7,53.14,53.14,0,0,0,38.34,8.71c13.06-2.38,24.13-11.61,29.92-23.94a71.47,71.47,0,0,0,6-20.16A180.63,180.63,0,0,0,736.78,450.4Z" transform="translate(-546.39 -147.61)"/></svg>